{"glyphs":{"0":{"ha":872,"x_min":0,"x_max":0,"o":"m 436 -17 b 847 463 713 -17 847 211 b 436 940 847 714 713 940 b 25 463 160 940 25 714 b 436 -17 25 211 160 -17 z m 436 231 b 307 463 347 231 307 306 b 436 693 307 619 347 693 b 565 463 525 693 565 619 b 436 231 565 306 525 231 z "},"1":{"ha":671,"x_min":0,"x_max":0,"o":"m 596 0 l 596 926 l 354 926 l 0 579 l 158 414 l 315 569 l 315 0 z "},"2":{"ha":851,"x_min":0,"x_max":0,"o":"m 814 0 l 814 244 l 513 244 b 806 621 733 390 806 494 b 408 940 806 807 649 940 b 17 783 279 940 124 897 l 169 597 b 414 693 240 657 315 693 b 521 621 474 693 521 665 b 57 218 521 551 481 517 l 57 0 z "},"3":{"ha":857,"x_min":0,"x_max":0,"o":"m 417 -17 b 819 261 657 -17 819 96 b 600 478 819 389 703 467 b 804 683 718 497 804 585 b 418 940 804 836 674 940 b 29 788 238 940 111 878 l 161 613 b 388 693 225 665 308 693 b 525 633 468 693 525 676 b 397 588 525 604 486 588 b 263 589 364 588 281 588 l 263 340 b 397 343 276 342 357 343 b 540 293 521 343 540 325 b 406 231 540 260 497 231 b 154 319 335 231 226 257 l 17 128 b 417 -17 94 44 233 -17 z "},"4":{"ha":883,"x_min":0,"x_max":0,"o":"m 751 0 l 751 149 l 858 149 l 858 393 l 751 393 l 751 926 l 363 926 l 25 364 l 25 149 l 471 149 l 471 0 z m 471 393 l 296 393 l 471 685 z "},"5":{"ha":869,"x_min":0,"x_max":0,"o":"m 432 -17 b 844 319 692 -17 844 115 b 546 622 844 504 704 622 b 353 551 468 622 397 594 l 353 682 l 781 682 l 781 926 l 72 926 l 72 364 l 265 319 b 438 383 313 364 367 383 b 560 307 524 383 560 349 b 429 231 560 268 522 231 b 194 311 349 231 258 258 l 44 114 b 432 -17 135 32 267 -17 z "},"6":{"ha":868,"x_min":0,"x_max":0,"o":"m 467 -17 b 851 317 686 -17 851 115 b 524 624 851 514 690 624 b 308 529 439 624 356 590 b 308 532 308 531 308 531 b 511 693 308 644 419 693 b 682 643 579 693 629 681 l 800 860 b 511 940 726 910 617 940 b 25 461 224 940 25 771 b 467 -17 25 190 163 -17 z m 449 231 b 307 349 351 231 313 286 b 438 386 344 378 390 386 b 567 306 493 386 567 365 b 449 231 567 267 519 231 z "},"7":{"ha":799,"x_min":0,"x_max":0,"o":"m 474 0 l 782 732 l 782 926 l 25 926 l 25 682 l 460 682 l 167 0 z "},"8":{"ha":875,"x_min":0,"x_max":0,"o":"m 438 -17 b 850 247 643 -17 850 58 b 672 478 850 347 778 433 b 835 692 769 518 835 583 b 438 940 835 874 628 940 b 40 692 247 940 40 874 b 201 478 40 583 104 518 b 25 247 96 433 25 347 b 438 -17 25 58 232 -17 z m 438 586 b 325 650 381 594 325 621 b 438 713 325 688 367 713 b 549 650 507 713 549 688 b 438 586 549 621 494 594 z m 438 211 b 310 279 358 211 310 239 b 438 351 310 315 378 343 b 565 279 496 343 565 315 b 438 211 565 239 514 211 z "},"9":{"ha":868,"x_min":0,"x_max":0,"o":"m 357 -15 b 843 464 644 -15 843 154 b 401 942 843 735 706 942 b 17 608 182 942 17 810 b 344 301 17 411 178 301 b 560 396 429 301 513 335 b 560 392 560 394 560 393 b 357 232 560 301 475 232 b 186 282 289 232 239 244 l 68 65 b 357 -15 142 15 251 -15 z m 431 539 b 301 619 375 539 301 560 b 418 694 301 658 349 694 b 561 576 517 694 556 639 b 431 539 524 547 478 539 z "},"Ð":{"ha":1051,"x_min":0,"x_max":0,"o":"m 519 0 b 1026 464 810 0 1026 168 b 518 926 1026 760 810 926 l 104 926 l 104 574 l 10 574 l 10 353 l 104 353 l 104 0 z m 564 353 l 564 574 l 385 574 l 385 682 l 519 682 b 742 464 669 682 742 589 b 518 244 742 347 658 244 l 385 244 l 385 353 z "},"ð":{"ha":801,"x_min":0,"x_max":0,"o":"m 117 611 l 324 703 b 538 479 425 632 514 554 b 313 613 490 561 417 613 b 24 299 156 613 24 488 b 400 -17 24 111 174 -17 b 778 358 639 -17 778 131 b 560 808 778 531 704 674 l 644 846 l 599 950 l 461 890 b 275 1015 406 932 344 974 l 142 817 b 207 778 163 804 185 792 l 72 719 z m 400 204 b 281 299 324 204 281 243 b 400 393 281 354 324 393 b 521 299 478 393 521 354 b 400 204 521 243 478 204 z "},"Ł":{"ha":757,"x_min":0,"x_max":0,"o":"m 10 226 l 88 271 l 88 0 l 719 0 l 719 244 l 368 244 l 368 432 l 446 476 l 446 700 l 368 656 l 368 926 l 88 926 l 88 493 l 10 449 z "},"Š":{"ha":851,"x_min":0,"x_max":0,"o":"m 526 1011 l 649 1211 l 503 1211 l 418 1110 l 329 1211 l 183 1211 l 310 1011 z m 435 -17 b 835 306 683 -17 835 101 b 319 663 835 650 319 575 b 390 704 319 686 335 704 b 663 613 478 704 582 674 l 813 811 b 419 940 707 897 571 940 b 35 633 165 940 35 790 b 551 269 35 268 551 358 b 449 219 551 233 501 219 b 150 339 324 219 219 272 l 4 131 b 435 -17 103 42 238 -17 z "},"š":{"ha":681,"x_min":0,"x_max":0,"o":"m 342 -17 b 660 214 540 -17 660 81 b 279 479 660 493 279 424 b 342 508 279 497 306 508 b 539 439 419 508 497 474 l 631 601 b 340 688 553 653 453 688 b 40 461 146 688 40 582 b 421 199 40 181 421 263 b 354 169 421 182 406 169 b 113 254 279 169 165 213 l 13 86 b 342 -17 85 26 218 -17 z m 451 772 l 574 972 l 428 972 l 343 871 l 254 972 l 108 972 l 235 772 z "},"Ý":{"ha":922,"x_min":0,"x_max":0,"o":"m 711 1211 l 496 1211 l 329 1011 l 496 1011 z m 603 0 l 603 368 l 947 926 l 632 926 l 463 614 l 290 926 l -25 926 l 322 368 l 322 0 z "},"Þ":{"ha":919,"x_min":0,"x_max":0,"o":"m 356 0 l 356 158 l 569 158 b 903 474 786 158 903 300 b 569 793 903 647 786 793 l 356 793 l 356 926 l 75 926 l 75 0 z m 533 403 l 356 403 l 356 549 l 533 549 b 618 475 581 549 618 524 b 533 403 618 426 581 403 z "},"þ":{"ha":826,"x_min":0,"x_max":0,"o":"m 508 -17 b 803 336 675 -17 803 106 b 508 688 803 565 675 688 b 319 600 439 688 374 664 l 319 926 l 69 926 l 69 -256 l 319 -256 l 319 71 b 508 -17 375 7 439 -17 z m 422 204 b 319 250 390 204 342 222 l 319 421 b 422 467 343 450 390 467 b 547 336 489 467 547 419 b 422 204 547 251 489 204 z "},"Ž":{"ha":833,"x_min":0,"x_max":0,"o":"m 528 1011 l 650 1211 l 504 1211 l 419 1110 l 331 1211 l 185 1211 l 311 1011 z m 783 0 l 783 244 l 419 244 l 774 706 l 774 926 l 50 926 l 50 682 l 403 682 l 50 222 l 50 0 z "},"ž":{"ha":675,"x_min":0,"x_max":0,"o":"m 629 0 l 629 217 l 382 217 l 624 496 l 624 671 l 46 671 l 46 454 l 282 454 l 46 183 l 46 0 z m 440 772 l 563 972 l 417 972 l 332 871 l 243 972 l 97 972 l 224 772 z "},"½":{"ha":1288,"x_min":0,"x_max":0,"o":"m 961 926 l 825 926 l 233 0 l 368 0 z m 1250 0 l 1250 144 l 1044 144 b 1244 382 1203 254 1244 313 b 996 564 1244 493 1150 564 b 753 469 921 564 821 540 l 844 353 b 992 419 871 382 932 419 b 1061 367 1038 419 1061 399 b 781 132 1061 335 1047 317 l 781 0 z m 383 371 l 383 926 l 226 926 l 0 707 l 103 599 l 200 694 l 200 371 z "},"¼":{"ha":1246,"x_min":0,"x_max":0,"o":"m 961 926 l 825 926 l 233 0 l 368 0 z m 1228 99 l 1228 240 l 1163 240 l 1163 556 l 906 556 l 707 219 l 707 99 l 981 99 l 981 0 l 1163 0 l 1163 99 z m 981 240 l 886 240 l 981 404 z m 383 371 l 383 926 l 226 926 l 0 707 l 103 599 l 200 694 l 200 371 z "},"¹":{"ha":467,"x_min":0,"x_max":0,"o":"m 383 585 l 383 1140 l 226 1140 l 0 921 l 103 813 l 200 908 l 200 585 z "},"¾":{"ha":1339,"x_min":0,"x_max":0,"o":"m 1054 926 l 918 926 l 326 0 l 461 0 z m 1321 99 l 1321 240 l 1256 240 l 1256 556 l 999 556 l 800 219 l 800 99 l 1074 99 l 1074 0 l 1256 0 l 1256 99 z m 1074 240 l 979 240 l 1074 404 z m 532 528 b 399 657 532 606 461 651 b 522 781 474 669 522 724 b 282 935 522 869 446 935 b 39 843 168 935 90 897 l 119 736 b 261 790 160 774 214 790 b 340 756 308 790 340 782 b 247 719 340 728 317 719 b 181 721 226 719 193 719 l 181 579 b 249 581 189 581 224 581 b 350 542 311 581 350 578 b 274 506 350 522 326 506 b 118 568 235 506 165 522 l 32 447 b 281 361 81 397 167 361 b 532 528 431 361 532 429 z "},"³":{"ha":565,"x_min":0,"x_max":0,"o":"m 532 742 b 399 871 532 819 461 865 b 522 994 474 883 522 938 b 282 1149 522 1083 446 1149 b 39 1057 168 1149 90 1111 l 119 950 b 261 1004 160 988 214 1004 b 340 969 308 1004 340 996 b 247 933 340 942 317 933 b 181 935 226 933 193 933 l 181 793 b 249 794 189 794 224 794 b 350 756 311 794 350 792 b 274 719 350 736 326 719 b 118 782 235 719 165 736 l 32 661 b 281 575 81 611 167 575 b 532 742 431 575 532 643 z "},"²":{"ha":565,"x_min":0,"x_max":0,"o":"m 528 585 l 528 729 l 322 729 b 522 967 481 839 522 897 b 274 1149 522 1078 428 1149 b 31 1054 199 1149 99 1125 l 122 938 b 269 1004 149 967 210 1004 b 339 951 315 1004 339 983 b 58 717 339 919 325 901 l 58 585 z "},"¦":{"ha":308,"x_min":0,"x_max":0,"o":"m 233 -28 l 233 411 l 75 411 l 75 -28 z m 233 515 l 233 954 l 75 954 l 75 515 z "},"−":{"ha":708,"x_min":0,"x_max":0,"o":"m 668 392 l 668 538 l 40 538 l 40 392 z "},"×":{"ha":708,"x_min":0,"x_max":0,"o":"m 540 175 l 643 278 l 458 464 l 643 650 l 540 753 l 354 567 l 169 753 l 65 650 l 251 464 l 65 278 l 169 175 l 354 361 z "}," ":{"ha":354,"x_min":0,"x_max":0,"o":""},"!":{"ha":389,"x_min":0,"x_max":0,"o":"m 308 344 l 343 926 l 46 926 l 83 344 z m 196 -15 b 343 132 276 -15 343 53 b 196 281 343 213 276 281 b 49 132 115 281 49 213 b 196 -15 49 53 115 -15 z "},"\"":{"ha":651,"x_min":0,"x_max":0,"o":"m 226 471 b 303 813 226 471 303 781 b 175 940 303 883 244 940 b 47 813 106 940 47 883 b 124 471 47 781 124 471 z m 528 471 b 604 813 528 471 604 781 b 478 940 604 883 547 940 b 350 813 407 940 350 883 b 426 471 350 781 426 471 z "},"#":{"ha":897,"x_min":0,"x_max":0,"o":"m 524 0 l 596 219 l 726 219 l 774 371 l 647 371 l 708 554 l 835 554 l 881 704 l 758 704 l 833 926 l 657 926 l 583 704 l 475 704 l 549 926 l 372 926 l 299 704 l 174 704 l 126 554 l 247 554 l 188 371 l 65 371 l 17 219 l 136 219 l 63 0 l 239 0 l 311 219 l 421 219 l 347 0 z m 471 371 l 364 371 l 424 554 l 532 554 z "},"$":{"ha":882,"x_min":0,"x_max":0,"o":"m 364 -139 l 542 -139 l 542 -11 b 856 306 739 14 856 126 b 340 663 856 650 340 575 b 411 704 340 686 356 704 b 683 613 499 704 603 674 l 833 811 b 542 933 751 878 653 918 l 542 1067 l 364 1067 l 364 935 b 56 633 160 908 56 774 b 572 269 56 268 572 358 b 469 219 572 233 522 219 b 171 339 344 219 240 272 l 25 131 b 364 -11 107 56 215 3 z "},"%":{"ha":1089,"x_min":0,"x_max":0,"o":"m 275 474 b 525 706 428 474 525 576 b 275 940 525 836 428 940 b 28 706 124 940 28 836 b 275 474 28 576 124 474 z m 317 0 l 910 926 l 774 926 l 182 0 z m 813 -17 b 1061 215 964 -17 1061 86 b 813 450 1061 346 964 450 b 565 215 661 450 565 346 b 813 -17 565 86 661 -17 z m 275 621 b 197 706 232 621 197 646 b 275 793 197 768 232 793 b 356 706 319 793 356 768 b 275 621 356 646 319 621 z m 813 131 b 733 215 768 131 733 154 b 813 303 733 278 768 303 b 893 215 857 303 893 278 b 813 131 893 154 857 131 z "},"&":{"ha":906,"x_min":0,"x_max":0,"o":"m 922 0 b 744 196 860 68 801 132 b 876 406 797 260 840 332 l 683 497 b 615 350 668 446 644 396 b 565 414 599 371 582 392 b 513 482 549 433 531 457 b 732 731 624 529 732 588 b 456 940 732 863 597 940 b 160 711 279 940 160 838 b 211 522 160 651 179 586 b 17 263 107 472 17 400 b 340 -17 17 75 160 -17 b 571 46 426 -17 503 7 b 614 0 588 28 601 13 z m 378 175 b 278 288 324 175 278 222 b 306 365 278 318 288 343 b 374 274 328 333 351 301 b 443 189 390 251 415 221 b 378 175 421 179 399 175 z m 404 704 b 468 767 404 740 431 767 b 522 715 499 767 522 744 b 431 613 522 669 485 639 b 404 704 414 646 404 678 z "},"'":{"ha":350,"x_min":0,"x_max":0,"o":"m 226 471 b 303 813 226 471 303 781 b 175 940 303 883 244 940 b 47 813 106 940 47 883 b 124 471 47 781 124 471 z "},"(":{"ha":481,"x_min":0,"x_max":0,"o":"m 456 -153 b 319 338 357 7 319 153 b 456 831 319 524 357 668 l 297 951 b 51 338 150 819 51 561 b 297 -276 51 114 150 -144 z "},")":{"ha":482,"x_min":0,"x_max":0,"o":"m 183 -276 b 429 338 331 -144 429 114 b 183 951 429 561 331 819 l 25 831 b 161 338 124 668 161 524 b 25 -153 161 153 124 7 z "},"*":{"ha":504,"x_min":0,"x_max":0,"o":"m 308 476 l 301 622 l 424 544 l 481 642 l 351 708 l 481 775 l 424 872 l 301 794 l 308 940 l 196 940 l 201 794 l 79 872 l 24 775 l 151 708 l 24 642 l 79 544 l 201 622 l 196 476 z "},"+":{"ha":708,"x_min":0,"x_max":0,"o":"m 668 396 l 668 542 l 435 542 l 435 799 l 274 799 l 274 542 l 40 542 l 40 396 l 274 396 l 274 128 l 435 128 l 435 396 z "},",":{"ha":390,"x_min":0,"x_max":0,"o":"m 353 101 b 192 281 353 215 276 281 b 47 135 114 281 47 215 b 168 6 47 57 101 6 b 204 11 183 6 197 8 b 78 -122 186 -42 122 -103 l 179 -204 b 353 101 288 -128 353 -21 z "},"-":{"ha":417,"x_min":0,"x_max":0,"o":"m 375 232 l 375 440 l 42 440 l 42 232 z "},".":{"ha":393,"x_min":0,"x_max":0,"o":"m 196 -17 b 344 132 276 -17 344 51 b 196 281 344 213 276 281 b 47 132 115 281 47 213 b 196 -17 47 51 115 -17 z "},"/":{"ha":503,"x_min":0,"x_max":0,"o":"m 174 -28 l 503 954 l 329 954 l 0 -28 z "},":":{"ha":369,"x_min":0,"x_max":0,"o":"m 196 383 b 344 532 276 383 344 451 b 196 681 344 613 276 681 b 47 532 115 681 47 613 b 196 383 47 451 115 383 z m 196 -17 b 344 132 276 -17 344 51 b 196 281 344 213 276 281 b 47 132 115 281 47 213 b 196 -17 47 51 115 -17 z "},";":{"ha":390,"x_min":0,"x_max":0,"o":"m 196 383 b 344 533 276 383 344 453 b 196 681 344 614 276 681 b 47 533 115 681 47 614 b 196 383 47 453 115 383 z m 353 110 b 192 289 353 224 276 289 b 47 143 114 289 47 224 b 168 14 47 65 101 14 b 204 19 183 14 197 17 b 78 -114 186 -33 122 -94 l 179 -196 b 353 110 288 -119 353 -12 z "},"<":{"ha":708,"x_min":0,"x_max":0,"o":"m 668 125 l 668 299 l 204 464 l 668 632 l 668 806 l 40 556 l 40 375 z "},"=":{"ha":708,"x_min":0,"x_max":0,"o":"m 668 518 l 668 664 l 40 664 l 40 518 z m 668 264 l 668 410 l 40 410 l 40 264 z "},">":{"ha":708,"x_min":0,"x_max":0,"o":"m 668 375 l 668 556 l 40 806 l 40 632 l 504 464 l 40 299 l 40 125 z "},"?":{"ha":625,"x_min":0,"x_max":0,"o":"m 213 311 l 432 361 b 417 413 425 369 417 389 b 614 717 417 507 614 521 b 308 940 614 854 496 940 b 0 814 200 940 81 900 l 156 635 b 276 693 190 671 240 693 b 331 664 319 693 331 681 b 175 443 331 621 175 594 b 213 311 175 388 190 342 z m 317 -17 b 465 132 397 -17 465 51 b 317 281 465 213 397 281 b 168 132 236 281 168 213 b 317 -17 168 51 236 -17 z "},"@":{"ha":1088,"x_min":0,"x_max":0,"o":"m 489 -97 b 778 -10 592 -97 692 -65 l 744 38 b 496 -37 669 -10 585 -37 b 111 343 274 -37 111 128 b 594 825 111 601 336 825 b 968 476 826 825 968 689 b 858 282 968 350 913 282 b 819 335 835 282 819 296 b 824 372 819 342 822 365 l 888 674 l 668 674 l 656 613 b 486 690 624 660 564 690 b 185 360 328 690 185 536 b 403 118 185 225 263 118 b 582 219 464 118 533 150 l 585 210 b 728 118 599 163 639 118 b 1038 476 853 118 1038 228 b 600 886 1038 696 869 886 b 49 339 311 886 49 632 b 489 -97 49 93 236 -97 z m 497 290 b 410 379 444 290 410 325 b 546 518 410 450 461 518 b 626 479 588 518 614 497 l 600 347 b 497 290 579 321 549 290 z "},"A":{"ha":986,"x_min":0,"x_max":0,"o":"m 1011 0 l 669 926 l 317 926 l -25 0 l 293 0 l 326 108 l 660 108 l 693 0 z m 585 353 l 401 353 l 493 651 z "},"B":{"ha":968,"x_min":0,"x_max":0,"o":"m 657 0 b 931 251 843 0 931 122 b 754 478 931 371 854 463 b 913 690 844 497 913 575 b 638 926 913 799 829 926 l 75 926 l 75 0 z m 572 585 l 356 585 l 356 693 l 572 693 b 628 640 601 693 628 672 b 572 585 628 607 601 585 z m 581 233 l 356 233 l 356 351 l 581 351 b 646 292 621 351 646 325 b 581 233 646 257 621 233 z "},"C":{"ha":968,"x_min":0,"x_max":0,"o":"m 535 -17 b 956 254 778 -17 901 131 l 714 365 b 535 231 690 293 618 231 b 310 463 400 231 310 333 b 535 694 310 592 400 694 b 714 560 618 694 690 632 l 956 672 b 535 942 900 800 778 942 b 25 463 244 942 25 749 b 535 -17 25 178 244 -17 z "},"D":{"ha":1022,"x_min":0,"x_max":0,"o":"m 490 0 b 997 464 781 0 997 168 b 489 926 997 760 781 926 l 75 926 l 75 0 z m 489 244 l 356 244 l 356 682 l 490 682 b 713 464 640 682 713 589 b 489 244 713 347 629 244 z "},"E":{"ha":828,"x_min":0,"x_max":0,"o":"m 778 0 l 778 244 l 356 244 l 356 346 l 768 346 l 768 590 l 356 590 l 356 682 l 778 682 l 778 926 l 75 926 l 75 0 z "},"F":{"ha":822,"x_min":0,"x_max":0,"o":"m 356 0 l 356 346 l 768 346 l 768 590 l 356 590 l 356 682 l 778 682 l 778 926 l 75 926 l 75 0 z "},"H":{"ha":1043,"x_min":0,"x_max":0,"o":"m 968 0 l 968 926 l 688 926 l 688 599 l 356 599 l 356 926 l 75 926 l 75 0 l 356 0 l 356 354 l 688 354 l 688 0 z "},"I":{"ha":431,"x_min":0,"x_max":0,"o":"m 356 0 l 356 926 l 75 926 l 75 0 z "},"J":{"ha":692,"x_min":0,"x_max":0,"o":"m 258 -17 b 617 331 474 -17 617 93 l 617 926 l 336 926 l 336 335 b 233 231 336 269 294 231 b 114 272 186 231 144 251 l 0 58 b 258 -17 72 3 168 -17 z "},"K":{"ha":932,"x_min":0,"x_max":0,"o":"m 957 0 l 592 496 l 942 926 l 599 926 l 356 579 l 356 926 l 75 926 l 75 0 l 356 0 l 356 257 l 407 326 l 615 0 z "},"L":{"ha":744,"x_min":0,"x_max":0,"o":"m 707 0 l 707 244 l 356 244 l 356 926 l 75 926 l 75 0 z "},"M":{"ha":1250,"x_min":0,"x_max":0,"o":"m 1175 0 l 1175 926 l 788 926 l 625 482 l 463 926 l 75 926 l 75 0 l 356 0 l 356 557 l 563 0 l 688 0 l 894 557 l 894 0 z "},"N":{"ha":1042,"x_min":0,"x_max":0,"o":"m 967 0 l 967 926 l 686 926 l 686 488 l 364 926 l 75 926 l 75 0 l 356 0 l 356 469 l 697 0 z "},"O":{"ha":1064,"x_min":0,"x_max":0,"o":"m 532 -17 b 1039 463 818 -17 1039 178 b 532 942 1039 747 818 942 b 25 463 246 942 25 747 b 532 -17 25 178 246 -17 z m 532 231 b 310 463 397 231 310 333 b 532 694 310 592 397 694 b 754 463 667 694 754 592 b 532 231 754 333 667 231 z "},"P":{"ha":919,"x_min":0,"x_max":0,"o":"m 356 0 l 356 292 l 569 292 b 903 608 786 292 903 436 b 569 926 903 782 786 926 l 75 926 l 75 0 z m 533 536 l 356 536 l 356 682 l 533 682 b 618 608 581 682 618 658 b 533 536 618 560 581 536 z "},"Q":{"ha":1064,"x_min":0,"x_max":0,"o":"m 532 -17 b 714 11 596 -17 657 -7 l 779 -69 l 974 86 l 924 149 b 1039 463 996 229 1039 338 b 532 942 1039 747 818 942 b 25 463 246 942 25 747 b 532 -17 25 178 246 -17 z m 532 231 b 310 463 397 231 310 333 b 532 694 310 592 397 694 b 754 463 667 694 754 592 b 740 378 754 432 750 404 l 671 467 l 476 311 l 540 231 z "},"R":{"ha":942,"x_min":0,"x_max":0,"o":"m 904 0 l 736 328 b 903 608 810 364 903 449 b 569 926 903 782 786 926 l 75 926 l 75 0 l 356 0 l 356 292 l 457 292 l 585 0 z m 526 536 l 356 536 l 356 682 l 526 682 b 618 610 574 682 618 660 b 526 536 618 558 574 536 z "},"S":{"ha":851,"x_min":0,"x_max":0,"o":"m 435 -17 b 835 306 683 -17 835 101 b 319 663 835 650 319 575 b 390 704 319 686 335 704 b 663 613 478 704 582 674 l 813 811 b 419 940 707 897 571 940 b 35 633 165 940 35 790 b 551 269 35 268 551 358 b 449 219 551 233 501 219 b 150 339 324 219 219 272 l 4 131 b 435 -17 103 42 238 -17 z "},"T":{"ha":826,"x_min":0,"x_max":0,"o":"m 554 0 l 554 682 l 801 682 l 801 926 l 25 926 l 25 682 l 274 682 l 274 0 z "},"U":{"ha":1065,"x_min":0,"x_max":0,"o":"m 533 -17 b 990 382 846 -17 990 151 l 990 926 l 706 926 l 706 390 b 533 231 706 301 647 231 b 360 390 418 231 360 301 l 360 926 l 75 926 l 75 381 b 533 -17 75 151 221 -17 z "},"V":{"ha":986,"x_min":0,"x_max":0,"o":"m 669 0 l 1011 926 l 693 926 l 493 303 l 293 926 l -25 926 l 317 0 z "},"W":{"ha":1325,"x_min":0,"x_max":0,"o":"m 1076 0 l 1342 926 l 1026 926 l 908 360 l 768 926 l 557 926 l 417 360 l 297 926 l -17 926 l 249 0 l 543 0 l 663 525 l 782 0 z "},"X":{"ha":950,"x_min":0,"x_max":0,"o":"m 975 0 l 665 476 l 954 926 l 622 926 l 475 663 l 325 926 l -4 926 l 285 475 l -25 0 l 306 0 l 475 283 l 644 0 z "},"Y":{"ha":922,"x_min":0,"x_max":0,"o":"m 603 0 l 603 368 l 947 926 l 632 926 l 463 614 l 290 926 l -25 926 l 322 368 l 322 0 z "},"Z":{"ha":833,"x_min":0,"x_max":0,"o":"m 783 0 l 783 244 l 419 244 l 774 706 l 774 926 l 50 926 l 50 682 l 403 682 l 50 222 l 50 0 z "},"[":{"ha":440,"x_min":0,"x_max":0,"o":"m 415 -264 l 415 -106 l 249 -106 l 249 783 l 415 783 l 415 942 l 75 942 l 75 -264 z "},"\\":{"ha":503,"x_min":0,"x_max":0,"o":"m 329 -28 l 503 -28 l 174 954 l 0 954 z "},"]":{"ha":440,"x_min":0,"x_max":0,"o":"m 365 -264 l 365 942 l 25 942 l 25 783 l 192 783 l 192 -106 l 25 -106 l 25 -264 z "},"^":{"ha":625,"x_min":0,"x_max":0,"o":"m 599 463 l 404 926 l 225 926 l 26 463 l 203 463 l 313 761 l 424 463 z "},"_":{"ha":783,"x_min":0,"x_max":0,"o":"m 788 -214 l 788 -56 l -4 -56 l -4 -214 z "},"`":{"ha":382,"x_min":0,"x_max":0,"o":"m 382 772 l 215 972 l 0 972 l 215 772 z "},"b":{"ha":828,"x_min":0,"x_max":0,"o":"m 319 249 l 319 421 b 424 467 343 450 390 467 b 549 336 492 467 549 419 b 424 204 549 251 492 204 b 319 249 390 204 343 219 z m 319 0 l 319 71 b 508 -17 376 7 440 -17 b 804 336 671 -17 804 106 b 508 688 804 558 674 688 b 319 600 440 688 372 664 l 319 926 l 69 926 l 69 0 z "},"c":{"ha":697,"x_min":0,"x_max":0,"o":"m 400 -17 b 685 110 553 -17 647 54 l 524 263 b 411 204 503 232 464 204 b 279 336 340 204 279 250 b 411 467 279 422 340 467 b 524 410 464 467 503 442 l 685 561 b 400 688 647 618 553 688 b 24 336 188 688 24 549 b 400 -17 24 122 188 -17 z "},"d":{"ha":828,"x_min":0,"x_max":0,"o":"m 758 0 l 758 926 l 508 926 l 508 600 b 319 688 456 664 388 688 b 24 336 154 688 24 558 b 319 -17 24 106 157 -17 b 508 71 388 -17 451 7 l 508 0 z m 404 204 b 279 336 336 204 279 253 b 404 467 279 419 336 467 b 508 422 438 467 485 451 l 508 250 b 404 204 485 221 438 204 z "},"e":{"ha":754,"x_min":0,"x_max":0,"o":"m 397 -17 b 683 67 497 -17 617 10 l 581 221 b 426 174 547 192 464 174 b 282 258 344 174 296 215 l 738 258 l 738 310 b 389 688 738 546 586 688 b 24 336 172 688 24 531 b 397 -17 24 115 188 -17 z m 500 417 l 279 417 b 389 497 288 447 313 497 b 500 417 469 497 493 446 z "},"g":{"ha":826,"x_min":0,"x_max":0,"o":"m 351 -272 b 757 72 518 -272 757 -218 l 757 671 l 507 671 l 507 600 b 318 688 453 664 388 688 b 24 353 153 688 24 576 b 318 18 24 124 157 18 b 507 108 388 18 450 43 l 507 72 b 351 -68 507 -46 410 -68 b 151 6 279 -68 203 -46 l 46 -172 b 351 -272 133 -242 236 -272 z m 404 239 b 279 353 336 239 279 271 b 404 467 279 435 336 467 b 507 424 436 467 483 451 l 507 282 b 404 239 483 254 436 239 z "},"h":{"ha":844,"x_min":0,"x_max":0,"o":"m 775 0 l 775 479 b 551 688 775 596 707 688 b 321 594 433 688 360 639 l 321 926 l 71 926 l 71 0 l 321 0 l 321 414 b 428 467 342 438 371 467 b 525 374 488 467 525 443 l 525 0 z "},"i":{"ha":389,"x_min":0,"x_max":0,"o":"m 194 719 b 335 860 272 719 335 782 b 194 1000 335 938 272 1000 b 54 860 117 1000 54 938 b 194 719 54 782 117 719 z m 319 0 l 319 671 l 69 671 l 69 0 z "},"j":{"ha":389,"x_min":0,"x_max":0,"o":"m 194 719 b 335 860 272 719 335 782 b 194 1000 335 938 272 1000 b 54 860 117 1000 54 938 b 194 719 54 782 117 719 z m 40 -272 b 319 29 235 -272 319 -143 l 319 671 l 69 671 l 69 29 b -4 -68 69 -35 42 -68 b -87 -42 -43 -68 -60 -62 l -147 -226 b 40 -272 -93 -260 -61 -272 z "},"k":{"ha":774,"x_min":0,"x_max":0,"o":"m 790 0 l 544 365 l 775 671 l 474 671 l 319 432 l 319 926 l 69 926 l 69 0 l 319 0 l 319 151 l 368 217 l 483 0 z "},"m":{"ha":1246,"x_min":0,"x_max":0,"o":"m 1176 0 l 1176 486 b 969 688 1176 625 1093 688 b 735 569 861 688 774 628 b 542 688 704 653 636 688 b 319 594 433 688 349 632 l 319 671 l 69 671 l 69 0 l 319 0 l 319 414 b 421 467 336 433 367 467 b 497 392 478 467 497 432 l 497 0 l 747 0 l 747 414 b 850 467 764 433 794 467 b 926 392 906 467 926 432 l 926 0 z "},"n":{"ha":843,"x_min":0,"x_max":0,"o":"m 774 0 l 774 476 b 550 688 774 593 706 688 b 319 594 432 688 358 639 l 319 671 l 69 671 l 69 0 l 319 0 l 319 414 b 426 467 340 438 369 467 b 524 371 486 467 524 440 l 524 0 z "},"o":{"ha":801,"x_min":0,"x_max":0,"o":"m 400 -17 b 778 336 639 -17 778 149 b 400 688 778 524 639 688 b 24 336 163 688 24 524 b 400 -17 24 149 163 -17 z m 400 204 b 281 336 324 204 281 261 b 400 467 281 410 324 467 b 521 336 478 467 521 410 b 400 204 521 261 478 204 z "},"p":{"ha":826,"x_min":0,"x_max":0,"o":"m 508 -17 b 803 336 675 -17 803 106 b 508 688 803 565 675 688 b 319 600 439 688 374 664 l 319 671 l 69 671 l 69 -256 l 319 -256 l 319 71 b 508 -17 375 7 439 -17 z m 422 204 b 319 250 390 204 342 222 l 319 421 b 422 467 343 450 390 467 b 547 336 489 467 547 419 b 422 204 547 251 489 204 z "},"q":{"ha":826,"x_min":0,"x_max":0,"o":"m 404 204 b 279 336 338 204 279 251 b 404 467 279 419 338 467 b 507 421 436 467 483 450 l 507 250 b 404 204 485 222 436 204 z m 318 -17 b 507 71 388 -17 451 7 l 507 -256 l 757 -256 l 757 671 l 507 671 l 507 600 b 318 688 453 664 388 688 b 24 336 151 688 24 565 b 318 -17 24 106 151 -17 z "},"r":{"ha":542,"x_min":0,"x_max":0,"o":"m 319 0 l 319 411 b 468 458 347 444 415 458 b 525 451 492 458 513 456 l 525 690 b 319 597 449 690 361 646 l 319 671 l 69 671 l 69 0 z "},"s":{"ha":681,"x_min":0,"x_max":0,"o":"m 342 -17 b 660 214 540 -17 660 81 b 279 479 660 493 279 424 b 342 508 279 497 306 508 b 539 439 419 508 497 474 l 631 601 b 340 688 553 653 453 688 b 40 461 146 688 40 582 b 421 199 40 181 421 263 b 354 169 421 182 406 169 b 113 254 279 169 165 213 l 13 86 b 342 -17 85 26 218 -17 z "},"t":{"ha":531,"x_min":0,"x_max":0,"o":"m 351 -17 b 521 28 436 -17 494 4 l 476 217 b 426 204 471 211 449 204 b 371 267 393 204 371 232 l 371 454 l 507 454 l 507 671 l 371 671 l 371 854 l 121 854 l 121 671 l 10 671 l 10 454 l 121 454 l 121 194 b 351 -17 121 54 203 -17 z "},"u":{"ha":842,"x_min":0,"x_max":0,"o":"m 772 0 l 772 671 l 522 671 l 522 257 b 417 204 501 233 472 204 b 319 299 356 204 319 231 l 319 671 l 69 671 l 69 192 b 292 -17 69 76 136 -17 b 522 75 410 -17 483 32 l 522 0 z "},"v":{"ha":743,"x_min":0,"x_max":0,"o":"m 504 0 l 764 671 l 500 671 l 371 288 l 243 671 l -21 671 l 239 0 z "},"w":{"ha":1118,"x_min":0,"x_max":0,"o":"m 940 0 l 1135 671 l 876 671 l 788 301 l 671 671 l 447 671 l 329 301 l 240 671 l -17 671 l 178 0 l 450 0 l 558 375 l 668 0 z "},"x":{"ha":724,"x_min":0,"x_max":0,"o":"m 740 0 l 519 344 l 725 671 l 451 671 l 361 514 l 271 671 l -3 671 l 203 344 l -17 0 l 256 0 l 363 178 l 467 0 z "},"z":{"ha":675,"x_min":0,"x_max":0,"o":"m 629 0 l 629 217 l 382 217 l 624 496 l 624 671 l 46 671 l 46 454 l 282 454 l 46 183 l 46 0 z "},"{":{"ha":439,"x_min":0,"x_max":0,"o":"m 415 -264 l 415 -106 l 332 -106 b 249 -7 286 -106 249 -67 l 249 213 b 185 339 249 271 231 319 b 249 465 231 358 249 407 l 249 686 b 332 783 249 747 286 783 l 415 783 l 415 942 l 332 942 b 75 685 197 942 75 846 l 75 493 b 3 404 75 442 51 404 l 3 274 b 75 185 51 274 75 236 l 75 -8 b 332 -264 75 -169 197 -264 z "},"|":{"ha":308,"x_min":0,"x_max":0,"o":"m 233 -28 l 233 954 l 75 954 l 75 -28 z "},"}":{"ha":439,"x_min":0,"x_max":0,"o":"m 24 -264 l 107 -264 b 364 -8 242 -264 364 -169 l 364 185 b 436 274 364 236 388 274 l 436 404 b 364 493 388 404 364 442 l 364 685 b 107 942 364 846 242 942 l 24 942 l 24 783 l 107 783 b 190 686 153 783 190 747 l 190 465 b 254 339 190 407 208 358 b 190 213 208 319 190 271 l 190 -7 b 107 -106 190 -67 153 -106 l 24 -106 z "},"~":{"ha":719,"x_min":0,"x_max":0,"o":"m 524 926 b 464 700 518 838 507 700 b 257 926 404 700 444 926 b 35 575 85 926 47 739 l 199 557 b 257 782 204 643 214 782 b 464 557 317 782 276 557 b 685 907 638 557 672 743 z "},"Ä":{"ha":986,"x_min":0,"x_max":0,"o":"m 768 1104 b 643 1228 768 1174 713 1228 b 519 1104 575 1228 519 1174 b 643 981 519 1035 575 981 b 768 1104 713 981 768 1035 z m 467 1104 b 343 1228 467 1174 413 1228 b 219 1104 274 1228 219 1174 b 343 981 219 1035 274 981 b 467 1104 413 981 467 1035 z m 1011 0 l 669 926 l 317 926 l -25 0 l 293 0 l 326 108 l 660 108 l 693 0 z m 585 353 l 401 353 l 493 651 z "},"Å":{"ha":986,"x_min":0,"x_max":0,"o":"m 494 963 b 647 1118 579 963 647 1033 b 494 1274 647 1203 579 1274 b 339 1118 410 1274 339 1203 b 494 963 339 1033 410 963 z m 494 1069 b 446 1118 468 1069 446 1092 b 494 1167 446 1144 468 1167 b 542 1118 521 1167 542 1144 b 494 1069 542 1092 521 1069 z m 1011 0 l 669 926 l 317 926 l -25 0 l 293 0 l 326 108 l 660 108 l 693 0 z m 585 353 l 401 353 l 493 651 z "},"Ç":{"ha":968,"x_min":0,"x_max":0,"o":"m 526 -272 b 690 -149 615 -272 690 -228 b 596 -47 690 -89 646 -47 b 549 -60 578 -47 563 -51 l 567 -15 b 956 254 789 -3 904 136 l 714 365 b 535 231 690 293 618 231 b 310 463 400 231 310 333 b 535 694 310 592 400 694 b 714 560 618 694 690 632 l 956 672 b 535 942 900 800 778 942 b 25 463 244 942 25 749 b 460 -11 25 203 207 18 l 431 -90 l 513 -137 b 549 -121 521 -128 533 -121 b 578 -144 567 -121 578 -129 b 519 -178 578 -168 549 -178 b 404 -136 481 -178 440 -161 l 361 -225 b 526 -272 392 -250 453 -272 z "},"É":{"ha":828,"x_min":0,"x_max":0,"o":"m 674 1211 l 458 1211 l 292 1011 l 458 1011 z m 778 0 l 778 244 l 356 244 l 356 346 l 768 346 l 768 590 l 356 590 l 356 682 l 778 682 l 778 926 l 75 926 l 75 0 z "},"Ñ":{"ha":1042,"x_min":0,"x_max":0,"o":"m 592 1008 b 756 1194 699 1008 756 1067 l 632 1194 b 599 1143 632 1160 617 1143 b 446 1203 561 1143 532 1203 b 282 1017 339 1203 282 1144 l 406 1017 b 439 1068 406 1051 421 1068 b 592 1008 476 1068 506 1008 z m 967 0 l 967 926 l 686 926 l 686 488 l 364 926 l 75 926 l 75 0 l 356 0 l 356 469 l 697 0 z "},"Ö":{"ha":1064,"x_min":0,"x_max":0,"o":"m 811 1104 b 686 1228 811 1174 756 1228 b 563 1104 618 1228 563 1174 b 686 981 563 1035 618 981 b 811 1104 756 981 811 1035 z m 510 1104 b 386 1228 510 1174 456 1228 b 263 1104 317 1228 263 1174 b 386 981 263 1035 317 981 b 510 1104 456 981 510 1035 z m 532 -17 b 1039 463 818 -17 1039 178 b 532 942 1039 747 818 942 b 25 463 246 942 25 747 b 532 -17 25 178 246 -17 z m 532 231 b 310 463 397 231 310 333 b 532 694 310 592 397 694 b 754 463 667 694 754 592 b 532 231 754 333 667 231 z "},"Ü":{"ha":1065,"x_min":0,"x_max":0,"o":"m 813 1104 b 688 1228 813 1174 757 1228 b 564 1104 619 1228 564 1174 b 688 981 564 1035 619 981 b 813 1104 757 981 813 1035 z m 511 1104 b 388 1228 511 1174 457 1228 b 264 1104 318 1228 264 1174 b 388 981 264 1035 318 981 b 511 1104 457 981 511 1035 z m 533 -17 b 990 382 846 -17 990 151 l 990 926 l 706 926 l 706 390 b 533 231 706 301 647 231 b 360 390 418 231 360 301 l 360 926 l 75 926 l 75 381 b 533 -17 75 151 221 -17 z "},"ç":{"ha":697,"x_min":0,"x_max":0,"o":"m 407 -275 b 571 -151 496 -275 571 -231 b 476 -50 571 -92 526 -50 b 429 -62 458 -50 443 -54 l 450 -14 b 685 110 574 0 651 60 l 524 263 b 411 204 503 232 464 204 b 279 336 340 204 279 250 b 411 467 279 422 340 467 b 524 410 464 467 503 442 l 685 561 b 400 688 647 618 553 688 b 24 336 188 688 24 549 b 340 -12 24 142 157 10 l 311 -93 l 393 -140 b 429 -124 401 -131 414 -124 b 458 -147 447 -124 458 -132 b 400 -181 458 -171 429 -181 b 285 -139 361 -181 321 -164 l 242 -228 b 407 -275 272 -253 333 -275 z "},"é":{"ha":754,"x_min":0,"x_max":0,"o":"m 397 -17 b 683 67 497 -17 617 10 l 581 221 b 426 174 547 192 464 174 b 282 258 344 174 296 215 l 738 258 l 738 310 b 389 688 738 546 586 688 b 24 336 172 688 24 531 b 397 -17 24 115 188 -17 z m 500 417 l 279 417 b 389 497 288 447 313 497 b 500 417 469 497 493 446 z m 639 972 l 424 972 l 257 772 l 424 772 z "},"è":{"ha":754,"x_min":0,"x_max":0,"o":"m 397 -17 b 683 67 497 -17 617 10 l 581 221 b 426 174 547 192 464 174 b 282 258 344 174 296 215 l 738 258 l 738 310 b 389 688 738 546 586 688 b 24 336 172 688 24 531 b 397 -17 24 115 188 -17 z m 500 417 l 279 417 b 389 497 288 447 313 497 b 500 417 469 497 493 446 z m 524 772 l 357 972 l 142 972 l 357 772 z "},"ê":{"ha":754,"x_min":0,"x_max":0,"o":"m 397 -17 b 683 67 497 -17 617 10 l 581 221 b 426 174 547 192 464 174 b 282 258 344 174 296 215 l 738 258 l 738 310 b 389 688 738 546 586 688 b 24 336 172 688 24 531 b 397 -17 24 115 188 -17 z m 500 417 l 279 417 b 389 497 288 447 313 497 b 500 417 469 497 493 446 z m 622 772 l 496 972 l 279 972 l 157 772 l 303 772 l 388 874 l 476 772 z "},"ë":{"ha":754,"x_min":0,"x_max":0,"o":"m 397 -17 b 683 67 497 -17 617 10 l 581 221 b 426 174 547 192 464 174 b 282 258 344 174 296 215 l 738 258 l 738 310 b 389 688 738 546 586 688 b 24 336 172 688 24 531 b 397 -17 24 115 188 -17 z m 500 417 l 279 417 b 389 497 288 447 313 497 b 500 417 469 497 493 446 z m 665 858 b 540 982 665 928 610 982 b 417 858 472 982 417 928 b 540 735 417 789 472 735 b 665 858 610 735 665 789 z m 364 858 b 240 982 364 928 310 982 b 117 858 171 982 117 928 b 240 735 117 789 171 735 b 364 858 310 735 364 789 z "},"í":{"ha":389,"x_min":0,"x_max":0,"o":"m 442 972 l 226 972 l 60 772 l 226 772 z m 319 0 l 319 671 l 69 671 l 69 0 z "},"ì":{"ha":389,"x_min":0,"x_max":0,"o":"m 329 772 l 163 972 l -53 972 l 163 772 z m 319 0 l 319 671 l 69 671 l 69 0 z "},"î":{"ha":389,"x_min":0,"x_max":0,"o":"m 428 772 l 301 972 l 85 972 l -37 772 l 108 772 l 193 874 l 282 772 z m 319 0 l 319 671 l 69 671 l 69 0 z "},"ï":{"ha":389,"x_min":0,"x_max":0,"o":"m 469 858 b 344 982 469 928 414 982 b 221 858 276 982 221 928 b 344 735 221 789 276 735 b 469 858 414 735 469 789 z m 168 858 b 44 982 168 928 114 982 b -79 858 -25 982 -79 928 b 44 735 -79 789 -25 735 b 168 858 114 735 168 789 z m 319 0 l 319 671 l 69 671 l 69 0 z "},"ñ":{"ha":843,"x_min":0,"x_max":0,"o":"m 788 0 l 788 476 b 564 688 788 593 719 688 b 333 594 446 688 372 639 l 333 671 l 83 671 l 83 0 l 333 0 l 333 414 b 440 467 354 438 383 467 b 538 371 500 467 538 440 l 538 0 z m 496 769 b 660 956 603 769 660 828 l 536 956 b 503 904 536 921 521 904 b 350 964 465 904 436 964 b 186 778 243 964 186 906 l 310 778 b 343 829 310 813 325 829 b 496 769 381 829 410 769 z "},"ó":{"ha":801,"x_min":0,"x_max":0,"o":"m 400 -17 b 778 336 639 -17 778 149 b 400 688 778 524 639 688 b 24 336 163 688 24 524 b 400 -17 24 149 163 -17 z m 400 204 b 281 336 324 204 281 261 b 400 467 281 410 324 467 b 521 336 478 467 521 410 b 400 204 521 261 478 204 z m 647 972 l 432 972 l 265 772 l 432 772 z "},"ò":{"ha":801,"x_min":0,"x_max":0,"o":"m 400 -17 b 778 336 639 -17 778 149 b 400 688 778 524 639 688 b 24 336 163 688 24 524 b 400 -17 24 149 163 -17 z m 400 204 b 281 336 324 204 281 261 b 400 467 281 410 324 467 b 521 336 478 467 521 410 b 400 204 521 261 478 204 z m 536 772 l 369 972 l 154 972 l 369 772 z "},"ô":{"ha":801,"x_min":0,"x_max":0,"o":"m 400 -17 b 778 336 639 -17 778 149 b 400 688 778 524 639 688 b 24 336 163 688 24 524 b 400 -17 24 149 163 -17 z m 400 204 b 281 336 324 204 281 261 b 400 467 281 410 324 467 b 521 336 478 467 521 410 b 400 204 521 261 478 204 z m 635 772 l 508 972 l 292 972 l 169 772 l 315 772 l 400 874 l 489 772 z "},"ö":{"ha":801,"x_min":0,"x_max":0,"o":"m 400 -17 b 778 336 639 -17 778 149 b 400 688 778 524 639 688 b 24 336 163 688 24 524 b 400 -17 24 149 163 -17 z m 400 204 b 281 336 324 204 281 261 b 400 467 281 410 324 467 b 521 336 478 467 521 410 b 400 204 521 261 478 204 z m 675 858 b 550 982 675 928 619 982 b 426 858 482 982 426 928 b 550 735 426 789 482 735 b 675 858 619 735 675 789 z m 374 858 b 250 982 374 928 319 982 b 126 858 181 982 126 928 b 250 735 126 789 181 735 b 374 858 319 735 374 789 z "},"õ":{"ha":801,"x_min":0,"x_max":0,"o":"m 400 -17 b 778 336 639 -17 778 149 b 400 688 778 524 639 688 b 24 336 163 688 24 524 b 400 -17 24 149 163 -17 z m 400 204 b 281 336 324 204 281 261 b 400 467 281 410 324 467 b 521 336 478 467 521 410 b 400 204 521 261 478 204 z m 474 769 b 638 956 581 769 638 828 l 514 956 b 481 904 514 921 499 904 b 328 964 443 904 414 964 b 164 778 221 964 164 906 l 288 778 b 321 829 288 813 303 829 b 474 769 358 829 388 769 z "},"ú":{"ha":842,"x_min":0,"x_max":0,"o":"m 772 0 l 772 671 l 522 671 l 522 257 b 417 204 501 233 472 204 b 319 299 356 204 319 231 l 319 671 l 69 671 l 69 192 b 292 -17 69 76 136 -17 b 522 75 410 -17 483 32 l 522 0 z m 669 972 l 454 972 l 288 772 l 454 772 z "},"ù":{"ha":842,"x_min":0,"x_max":0,"o":"m 772 0 l 772 671 l 522 671 l 522 257 b 417 204 501 233 472 204 b 319 299 356 204 319 231 l 319 671 l 69 671 l 69 192 b 292 -17 69 76 136 -17 b 522 75 410 -17 483 32 l 522 0 z m 558 772 l 392 972 l 176 972 l 392 772 z "},"û":{"ha":842,"x_min":0,"x_max":0,"o":"m 772 0 l 772 671 l 522 671 l 522 257 b 417 204 501 233 472 204 b 319 299 356 204 319 231 l 319 671 l 69 671 l 69 192 b 292 -17 69 76 136 -17 b 522 75 410 -17 483 32 l 522 0 z m 657 772 l 531 972 l 314 972 l 192 772 l 338 772 l 422 874 l 511 772 z "},"ü":{"ha":842,"x_min":0,"x_max":0,"o":"m 772 0 l 772 671 l 522 671 l 522 257 b 417 204 501 233 472 204 b 319 299 356 204 319 231 l 319 671 l 69 671 l 69 192 b 292 -17 69 76 136 -17 b 522 75 410 -17 483 32 l 522 0 z m 699 858 b 574 982 699 928 643 982 b 450 858 506 982 450 928 b 574 735 450 789 506 735 b 699 858 643 735 699 789 z m 397 858 b 274 982 397 928 343 982 b 150 858 204 982 150 928 b 274 735 150 789 204 735 b 397 858 343 735 397 789 z "},"†":{"ha":404,"x_min":0,"x_max":0,"o":"m 381 713 l 381 825 l 257 821 l 263 940 l 140 940 l 147 821 l 24 825 l 24 713 l 147 718 l 140 454 l 263 454 l 257 718 z "},"°":{"ha":460,"x_min":0,"x_max":0,"o":"m 436 733 b 229 940 436 847 343 940 b 24 733 115 940 24 847 b 229 528 24 619 115 528 b 436 733 343 528 436 619 z m 311 733 b 229 654 311 689 274 654 b 150 733 185 654 150 689 b 229 815 150 778 185 815 b 311 733 274 815 311 778 z "},"¢":{"ha":697,"x_min":0,"x_max":0,"o":"m 318 -139 l 493 -139 l 493 -7 b 685 110 592 14 656 67 l 524 263 b 411 204 503 232 464 204 b 279 336 340 204 279 250 b 411 467 279 422 340 467 b 524 410 464 467 503 442 l 685 561 b 493 678 656 606 592 657 l 493 785 l 318 785 l 318 681 b 24 336 147 649 24 519 b 318 -10 24 150 147 21 z "},"£":{"ha":807,"x_min":0,"x_max":0,"o":"m 36 375 l 169 375 b 182 307 176 353 182 331 b 64 174 182 249 119 204 l 156 -10 b 314 42 208 21 265 42 b 568 -17 378 42 450 -17 b 790 56 685 -17 753 15 l 683 276 b 578 231 665 251 633 231 b 419 265 518 231 493 265 b 360 257 404 265 381 264 b 431 375 399 279 428 332 l 582 375 l 582 526 l 396 526 b 365 633 381 561 365 593 b 457 715 365 678 401 715 b 564 632 501 715 543 690 l 786 760 b 421 940 719 888 603 940 b 58 639 263 940 58 839 b 89 526 58 599 71 561 l 36 526 z "},"§":{"ha":694,"x_min":0,"x_max":0,"o":"m 660 467 b 279 733 660 729 279 653 b 351 771 279 758 303 771 b 539 704 418 771 492 742 l 629 850 b 339 940 576 896 489 940 b 40 728 171 940 40 851 b 151 547 40 651 74 583 b 40 379 110 526 40 468 b 421 94 40 107 421 189 b 342 57 421 67 390 57 b 113 154 258 57 163 110 l 17 -1 b 342 -112 88 -60 199 -112 b 660 118 522 -112 660 -28 b 556 289 660 210 613 261 b 660 467 621 326 660 394 z m 414 414 b 367 346 414 383 403 361 b 279 421 326 353 279 371 b 339 488 279 453 292 479 b 414 414 385 478 414 454 z "},"•":{"ha":497,"x_min":0,"x_max":0,"o":"m 431 336 b 250 517 431 436 350 517 b 69 336 150 517 69 436 b 250 157 69 238 150 157 b 431 336 350 157 431 238 z "},"¶":{"ha":624,"x_min":0,"x_max":0,"o":"m 593 -139 l 593 926 l 276 926 b 38 688 144 926 38 819 b 276 449 38 556 144 449 l 276 -139 l 388 -139 l 388 815 l 482 815 l 482 -139 z "},"ß":{"ha":956,"x_min":0,"x_max":0,"o":"m 939 214 b 614 472 939 492 614 424 b 771 714 614 525 771 554 b 442 940 771 854 610 940 b 71 626 203 940 71 794 l 71 0 l 321 0 l 321 626 b 436 719 321 686 368 719 b 514 675 479 719 514 706 b 375 461 514 642 375 599 b 700 199 375 197 700 260 b 639 169 700 183 679 169 b 447 254 569 169 483 208 l 351 83 b 639 -17 425 21 514 -17 b 939 214 810 -17 939 72 z "},"®":{"ha":686,"x_min":0,"x_max":0,"o":"m 638 646 b 343 940 638 810 507 940 b 49 646 181 940 49 810 b 343 351 49 483 181 351 b 638 646 507 351 638 483 z m 589 646 b 343 400 589 511 479 400 b 97 646 207 400 97 511 b 343 892 97 783 207 892 b 589 646 479 892 589 783 z m 485 476 l 394 611 b 481 711 414 611 481 636 b 367 814 481 774 424 814 l 229 814 l 229 476 l 281 476 l 281 610 l 335 610 l 422 476 z m 428 711 b 367 654 428 676 396 654 l 281 654 l 281 771 l 367 771 b 428 711 396 771 428 749 z "},"©":{"ha":1081,"x_min":0,"x_max":0,"o":"m 1019 464 b 540 943 1019 729 806 943 b 61 464 276 943 61 729 b 540 -15 61 200 276 -15 b 1019 464 806 -15 1019 200 z m 961 464 b 540 43 961 233 772 43 b 119 464 310 43 119 233 b 540 885 119 696 310 885 b 961 464 772 885 961 696 z m 710 321 b 551 239 674 272 618 239 b 339 465 433 239 339 336 b 551 689 339 596 433 689 b 708 608 617 689 672 657 l 760 660 b 551 754 711 717 638 754 b 263 465 392 754 263 635 b 551 174 263 296 392 174 b 763 271 638 174 713 213 z "},"™":{"ha":631,"x_min":0,"x_max":0,"o":"m 582 621 l 582 926 l 522 926 l 433 704 l 344 926 l 285 926 l 285 621 l 324 621 l 324 874 l 428 621 l 439 621 l 543 874 l 543 621 z m 235 890 l 235 926 l 24 926 l 24 890 l 110 890 l 110 621 l 149 621 l 149 890 z "},"´":{"ha":382,"x_min":0,"x_max":0,"o":"m 382 972 l 167 972 l 0 772 l 167 772 z "},"¨":{"ha":442,"x_min":0,"x_max":0,"o":"m 496 858 b 371 982 496 928 440 982 b 247 858 303 982 247 928 b 371 735 247 789 303 735 b 496 858 440 735 496 789 z m 194 858 b 71 982 194 928 140 982 b -53 858 1 982 -53 928 b 71 735 -53 789 1 735 b 194 858 140 735 194 789 z "},"≠":{"ha":708,"x_min":0,"x_max":0,"o":"m 208 129 l 294 264 l 668 264 l 668 410 l 388 410 l 457 518 l 668 518 l 668 664 l 550 664 l 635 797 l 499 797 l 414 664 l 40 664 l 40 518 l 321 518 l 251 410 l 40 410 l 40 264 l 158 264 l 74 129 z "},"Æ":{"ha":1374,"x_min":0,"x_max":0,"o":"m 1332 0 l 1332 244 l 910 244 l 910 346 l 1322 346 l 1322 590 l 910 590 l 910 682 l 1332 682 l 1332 926 l 514 926 l -35 0 l 285 0 l 342 108 l 629 108 l 629 0 z m 629 353 l 472 353 l 629 651 z "},"Ø":{"ha":1064,"x_min":0,"x_max":0,"o":"m 532 -17 b 1039 463 818 -17 1039 178 b 900 801 1039 601 986 718 l 1006 926 l 814 926 l 779 886 b 532 942 706 921 622 942 b 25 463 246 942 25 747 b 146 142 25 333 69 224 l 25 0 l 217 0 l 260 51 b 532 -17 338 7 431 -17 z m 532 231 b 432 253 494 231 461 239 l 719 590 b 754 463 742 554 754 510 b 532 231 754 333 667 231 z m 310 463 b 532 694 310 592 397 694 b 606 682 558 694 583 690 l 331 358 b 310 463 317 389 310 425 z "},"∞":{"ha":1006,"x_min":0,"x_max":0,"o":"m 289 204 b 503 329 382 204 463 256 b 717 204 543 256 624 204 b 965 465 899 204 965 339 b 717 729 965 592 899 729 b 503 603 624 729 543 676 b 289 729 463 676 382 729 b 40 467 110 729 40 593 b 289 204 40 340 110 204 z m 694 349 b 569 465 636 349 592 394 b 694 585 592 536 636 585 b 808 465 756 585 808 540 b 694 349 808 390 756 349 z m 313 347 b 197 467 251 347 197 392 b 313 585 197 542 251 585 b 438 467 371 585 415 538 b 313 347 415 396 371 347 z "},"±":{"ha":708,"x_min":0,"x_max":0,"o":"m 668 456 l 668 601 l 435 601 l 435 858 l 274 858 l 274 601 l 40 601 l 40 456 l 274 456 l 274 188 l 435 188 l 435 456 z m 668 0 l 668 146 l 40 146 l 40 0 z "},"≤":{"ha":708,"x_min":0,"x_max":0,"o":"m 668 167 l 668 340 l 204 506 l 668 674 l 668 847 l 40 597 l 40 417 z m 668 0 l 668 146 l 40 146 l 40 0 z "},"≥":{"ha":708,"x_min":0,"x_max":0,"o":"m 667 417 l 667 597 l 39 847 l 39 674 l 503 506 l 39 340 l 39 167 z m 668 0 l 668 146 l 40 146 l 40 0 z "},"¥":{"ha":922,"x_min":0,"x_max":0,"o":"m 603 0 l 603 149 l 890 149 l 890 294 l 603 294 l 603 368 l 890 368 l 890 514 l 693 514 l 947 926 l 632 926 l 463 614 l 290 926 l -25 926 l 231 514 l 35 514 l 35 368 l 322 368 l 322 294 l 35 294 l 35 149 l 322 149 l 322 0 z "},"µ":{"ha":842,"x_min":0,"x_max":0,"o":"m 319 -256 l 319 -17 b 522 75 421 -10 486 35 l 522 0 l 772 0 l 772 671 l 522 671 l 522 257 b 417 204 501 233 472 204 b 319 299 356 204 319 231 l 319 671 l 69 671 l 69 -256 z "},"∂":{"ha":801,"x_min":0,"x_max":0,"o":"m 400 -17 b 778 367 639 -17 778 131 b 464 954 778 621 613 853 l 261 824 b 525 508 410 740 481 635 b 313 613 486 576 414 613 b 24 299 151 613 24 467 b 400 -17 24 131 163 -17 z m 400 204 b 281 299 324 204 281 239 b 400 393 281 358 324 393 b 521 299 478 393 521 358 b 400 204 521 239 478 204 z "},"∑":{"ha":828,"x_min":0,"x_max":0,"o":"m 403 682 l 778 682 l 778 926 l 51 926 l 51 683 l 293 408 l 50 119 l 50 -125 l 778 -125 l 778 119 l 390 119 l 639 410 z "},"∏":{"ha":1206,"x_min":0,"x_max":0,"o":"m 1043 -125 l 1043 682 l 1181 682 l 1181 926 l 25 926 l 25 682 l 164 682 l 164 -125 l 444 -125 l 444 682 l 763 682 l 763 -125 z "},"π":{"ha":946,"x_min":0,"x_max":0,"o":"m 833 0 l 833 476 l 921 476 l 921 694 l 25 694 l 25 476 l 114 476 l 114 0 l 364 0 l 364 476 l 583 476 l 583 0 z "},"∫":{"ha":554,"x_min":0,"x_max":0,"o":"m 107 -139 b 364 117 242 -139 364 -44 l 364 811 b 447 908 364 872 401 908 l 531 908 l 531 1067 l 447 1067 b 190 810 313 1067 190 971 l 190 118 b 107 19 190 58 153 19 l 24 19 l 24 -139 z "},"ª":{"ha":544,"x_min":0,"x_max":0,"o":"m 489 453 l 489 707 b 265 900 489 863 376 900 b 53 835 200 900 114 881 l 114 721 b 233 771 149 753 193 771 b 313 711 288 771 313 744 l 313 678 b 179 724 297 696 254 724 b 28 585 110 724 28 683 b 179 442 28 486 110 442 b 313 493 254 442 297 474 l 313 453 z m 254 549 b 201 585 231 549 201 554 b 254 621 201 614 231 621 b 313 596 276 621 303 611 l 313 575 b 254 549 303 558 276 549 z "},"º":{"ha":563,"x_min":0,"x_max":0,"o":"m 281 442 b 535 671 442 442 535 550 b 281 900 535 792 442 900 b 28 671 122 900 28 792 b 281 442 28 550 122 442 z m 281 581 b 210 671 236 581 210 608 b 281 758 210 733 236 758 b 354 671 326 758 354 733 b 281 581 354 608 326 581 z "},"Ω":{"ha":1064,"x_min":0,"x_max":0,"o":"m 49 0 l 463 0 l 463 244 b 310 465 351 278 310 382 b 532 693 310 554 358 693 b 754 465 706 693 754 554 b 601 244 754 382 713 278 l 601 0 l 1015 0 l 1015 244 l 872 244 b 1039 532 964 314 1039 413 b 532 942 1039 794 818 942 b 25 532 247 942 25 794 b 192 244 25 413 100 314 l 49 244 z "},"ø":{"ha":801,"x_min":0,"x_max":0,"o":"m 165 0 l 196 33 b 400 -17 251 1 319 -17 b 778 336 639 -17 778 149 b 688 572 778 425 746 508 l 778 671 l 632 671 l 603 639 b 400 688 547 669 479 688 b 24 336 163 688 24 524 b 113 99 24 247 54 163 l 24 0 z m 400 204 b 357 211 385 204 369 207 l 514 382 b 521 336 518 368 521 353 b 400 204 521 261 478 204 z m 281 336 b 400 467 281 410 324 467 b 440 461 415 467 428 465 l 286 290 b 281 336 282 304 281 319 z "},"¿":{"ha":557,"x_min":0,"x_max":0,"o":"m 413 360 l 193 310 b 208 258 200 301 208 282 b 11 -46 208 164 11 150 b 317 -269 11 -183 129 -269 b 625 -143 425 -269 544 -229 l 469 36 b 349 -22 435 0 385 -22 b 294 7 306 -22 294 -10 b 450 228 294 50 450 76 b 413 360 450 283 435 329 z m 308 688 b 160 539 228 688 160 619 b 308 390 160 458 228 390 b 457 539 389 390 457 458 b 308 688 457 619 389 688 z "},"¡":{"ha":389,"x_min":0,"x_max":0,"o":"m 46 -256 l 343 -256 l 306 326 l 81 326 z m 46 540 b 193 392 46 460 113 392 b 340 540 274 392 340 460 b 193 688 340 619 274 688 b 46 540 113 688 46 619 z "},"¬":{"ha":732,"x_min":0,"x_max":0,"o":"m 668 664 l 40 664 l 40 518 l 518 518 l 518 264 l 668 264 z "},"√":{"ha":888,"x_min":0,"x_max":0,"o":"m 531 0 l 863 926 l 682 926 l 457 246 l 354 571 l 54 479 l 97 339 l 246 385 l 376 0 z "},"ƒ":{"ha":663,"x_min":0,"x_max":0,"o":"m 272 -224 l 392 310 l 560 310 l 560 526 l 439 526 l 464 638 b 536 696 474 676 504 696 b 596 668 563 696 582 686 l 694 872 b 499 940 646 924 576 940 b 190 703 350 940 221 842 l 151 526 l 49 526 l 49 310 l 104 310 l -14 -224 z "},"≈":{"ha":708,"x_min":0,"x_max":0,"o":"m 40 264 b 197 238 82 249 144 238 b 510 300 354 238 381 300 b 668 263 563 300 621 286 l 668 418 b 510 446 626 433 563 446 b 197 383 353 446 326 383 b 40 419 144 383 88 396 z m 40 510 b 197 483 82 494 144 483 b 510 546 354 483 381 546 b 668 508 563 546 621 532 l 668 664 b 510 692 626 679 563 692 b 197 629 353 692 326 629 b 40 665 144 629 88 642 z "},"∆":{"ha":986,"x_min":0,"x_max":0,"o":"m 1011 0 l 669 926 l 317 926 l -25 0 z m 618 244 l 368 244 l 493 651 z "},"«":{"ha":854,"x_min":0,"x_max":0,"o":"m 813 88 l 590 338 l 813 583 l 590 583 l 368 338 l 590 88 z m 486 88 l 264 338 l 486 583 l 264 583 l 42 338 l 264 88 z "},"»":{"ha":854,"x_min":0,"x_max":0,"o":"m 486 338 l 264 583 l 42 583 l 264 338 l 42 88 l 264 88 z m 813 338 l 590 583 l 368 583 l 590 338 l 368 88 l 590 88 z "},"…":{"ha":1175,"x_min":0,"x_max":0,"o":"m 343 132 b 196 281 343 213 276 281 b 49 132 115 281 49 213 b 196 -15 49 53 115 -15 b 343 132 276 -15 343 53 z m 735 132 b 588 281 735 213 668 281 b 440 132 507 281 440 213 b 588 -15 440 53 507 -15 b 735 132 668 -15 735 53 z m 1126 132 b 979 281 1126 213 1060 281 b 832 132 899 281 832 213 b 979 -15 832 53 899 -15 b 1126 132 1060 -15 1126 53 z "}," ":{"ha":354,"x_min":0,"x_max":0,"o":""},"À":{"ha":986,"x_min":0,"x_max":0,"o":"m 631 1011 l 464 1211 l 249 1211 l 464 1011 z m 1011 0 l 669 926 l 317 926 l -25 0 l 293 0 l 326 108 l 660 108 l 693 0 z m 585 353 l 401 353 l 493 651 z "},"Ã":{"ha":986,"x_min":0,"x_max":0,"o":"m 567 1008 b 731 1194 674 1008 731 1067 l 607 1194 b 574 1143 607 1160 592 1143 b 421 1203 536 1143 507 1203 b 257 1017 314 1203 257 1144 l 381 1017 b 414 1068 381 1051 396 1068 b 567 1008 451 1068 481 1008 z m 1011 0 l 669 926 l 317 926 l -25 0 l 293 0 l 326 108 l 660 108 l 693 0 z m 585 353 l 401 353 l 493 651 z "},"Õ":{"ha":1064,"x_min":0,"x_max":0,"o":"m 606 1008 b 769 1194 713 1008 769 1067 l 646 1194 b 613 1143 646 1160 631 1143 b 460 1203 575 1143 546 1203 b 296 1017 353 1203 296 1144 l 419 1017 b 453 1068 419 1051 435 1068 b 606 1008 490 1068 519 1008 z m 532 -17 b 1039 463 818 -17 1039 178 b 532 942 1039 747 818 942 b 25 463 246 942 25 747 b 532 -17 25 178 246 -17 z m 532 231 b 310 463 397 231 310 333 b 532 694 310 592 397 694 b 754 463 667 694 754 592 b 532 231 754 333 667 231 z "},"Œ":{"ha":1475,"x_min":0,"x_max":0,"o":"m 1433 0 l 1433 244 l 1011 244 l 1011 346 l 1424 346 l 1424 590 l 1011 590 l 1011 682 l 1433 682 l 1433 926 l 731 926 l 731 876 b 500 940 672 921 575 940 b 25 463 231 940 25 750 b 500 -17 25 175 231 -17 b 731 50 575 -17 672 4 l 731 0 z m 731 329 b 543 231 696 269 626 231 b 310 463 397 231 310 333 b 543 693 310 592 397 693 b 731 597 626 693 696 657 z "},"œ":{"ha":1251,"x_min":0,"x_max":0,"o":"m 1235 258 l 1235 310 b 886 688 1235 546 1083 688 b 647 581 772 688 700 636 b 400 688 588 636 514 688 b 24 336 163 688 24 524 b 400 -17 24 149 163 -17 b 646 89 514 -17 590 33 b 931 -17 704 35 772 -17 b 1181 67 994 -17 1114 10 l 1072 219 b 931 172 1039 192 982 172 b 779 258 842 172 797 221 z m 776 417 b 886 499 785 449 810 499 b 997 417 967 499 990 446 z m 521 336 b 400 203 521 247 468 203 b 281 336 333 203 281 247 b 400 467 281 424 333 467 b 521 336 468 467 521 424 z "},"–":{"ha":824,"x_min":0,"x_max":0,"o":"m 782 232 l 782 440 l 42 440 l 42 232 z "},"—":{"ha":1157,"x_min":0,"x_max":0,"o":"m 1115 232 l 1115 440 l 42 440 l 42 232 z "},"“":{"ha":733,"x_min":0,"x_max":0,"o":"m 36 636 b 197 457 36 522 113 457 b 342 603 275 457 342 522 b 221 732 342 681 288 732 b 185 726 206 732 192 729 b 311 860 203 779 267 840 l 210 942 b 36 636 101 865 36 758 z m 379 636 b 540 457 379 522 456 457 b 685 603 618 457 685 522 b 564 732 685 681 631 732 b 528 726 549 732 535 729 b 654 860 546 779 610 840 l 553 942 b 379 636 444 865 379 758 z "},"”":{"ha":733,"x_min":0,"x_max":0,"o":"m 696 761 b 535 940 696 875 619 940 b 390 794 457 940 390 875 b 511 665 390 717 444 665 b 547 671 526 665 540 668 b 421 538 529 618 465 557 l 522 456 b 696 761 631 532 696 639 z m 353 761 b 192 940 353 875 276 940 b 47 794 114 940 47 875 b 168 665 47 717 101 665 b 204 671 183 665 197 668 b 78 538 186 618 122 557 l 179 456 b 353 761 288 532 353 639 z "},"‘":{"ha":390,"x_min":0,"x_max":0,"o":"m 42 636 b 203 457 42 522 118 457 b 347 603 281 457 347 522 b 226 732 347 681 293 732 b 190 726 211 732 197 729 b 317 860 208 779 272 840 l 215 942 b 42 636 107 865 42 758 z "},"’":{"ha":390,"x_min":0,"x_max":0,"o":"m 353 761 b 192 940 353 875 276 940 b 47 794 114 940 47 875 b 168 665 47 717 101 665 b 204 671 183 665 197 668 b 78 538 186 618 122 557 l 179 456 b 353 761 288 532 353 639 z "},"÷":{"ha":710,"x_min":0,"x_max":0,"o":"m 460 701 b 354 806 460 760 413 806 b 249 701 296 806 249 760 b 354 594 249 643 296 594 b 460 701 413 594 460 643 z m 669 396 l 669 542 l 40 542 l 40 396 z m 460 236 b 354 342 460 294 413 342 b 249 236 296 342 249 294 b 354 131 249 178 296 131 b 460 236 413 131 460 178 z "},"◊":{"ha":521,"x_min":0,"x_max":0,"o":"m 275 0 l 494 464 l 275 926 l 246 926 l 26 464 l 246 0 z m 261 57 l 76 464 l 260 869 l 444 464 z "},"Ÿ":{"ha":922,"x_min":0,"x_max":0,"o":"m 738 1104 b 613 1228 738 1174 682 1228 b 489 1104 544 1228 489 1174 b 613 981 489 1035 544 981 b 738 1104 682 981 738 1035 z m 436 1104 b 313 1228 436 1174 382 1228 b 189 1104 243 1228 189 1174 b 313 981 189 1035 243 981 b 436 1104 382 981 436 1035 z m 603 0 l 603 368 l 947 926 l 632 926 l 463 614 l 290 926 l -25 926 l 322 368 l 322 0 z "},"⁄":{"ha":250,"x_min":0,"x_max":0,"o":"m 489 926 l 353 926 l -239 0 l -104 0 z "},"€":{"ha":1003,"x_min":0,"x_max":0,"o":"m 569 -17 b 990 254 813 -17 936 131 l 749 365 b 569 231 725 293 653 231 b 401 303 499 231 442 258 l 653 303 l 653 435 l 346 435 b 344 463 344 443 344 453 b 346 494 344 474 344 483 l 653 494 l 653 626 l 406 626 b 569 694 444 668 501 694 b 749 560 653 694 725 632 l 990 672 b 569 942 935 800 813 942 b 86 626 339 942 153 819 l 17 626 l 17 494 l 61 494 b 60 463 60 483 60 472 l 60 435 l 17 435 l 17 303 l 85 303 b 569 -17 150 107 338 -17 z "},"‹":{"ha":528,"x_min":0,"x_max":0,"o":"m 486 88 l 264 338 l 486 583 l 264 583 l 42 338 l 264 88 z "},"›":{"ha":528,"x_min":0,"x_max":0,"o":"m 486 338 l 264 583 l 42 583 l 264 338 l 42 88 l 264 88 z "},"ﬁ":{"ha":904,"x_min":0,"x_max":0,"o":"m 371 0 l 371 454 l 507 454 l 507 671 l 371 671 l 371 701 b 431 756 371 732 397 756 b 486 738 453 756 471 749 l 532 907 b 376 940 496 926 440 940 b 121 701 228 940 121 840 l 121 671 l 10 671 l 10 454 l 121 454 l 121 0 z m 710 719 b 850 860 788 719 850 782 b 710 1000 850 938 788 1000 b 569 860 632 1000 569 938 b 710 719 569 782 632 719 z m 835 0 l 835 671 l 585 671 l 585 0 z "},"‡":{"ha":404,"x_min":0,"x_max":0,"o":"m 381 825 l 257 821 l 263 940 l 140 940 l 146 821 l 24 825 l 24 713 l 146 718 l 146 475 l 24 481 l 24 368 l 146 372 l 140 250 l 263 250 l 257 372 l 381 368 l 381 481 l 257 475 l 257 718 l 381 713 z "},"·":{"ha":393,"x_min":0,"x_max":0,"o":"m 343 339 b 196 488 343 419 276 488 b 49 339 115 488 49 419 b 196 192 49 260 115 192 b 343 339 276 192 343 260 z "},"‚":{"ha":390,"x_min":0,"x_max":0,"o":"m 353 101 b 192 281 353 215 276 281 b 47 135 114 281 47 215 b 168 6 47 57 101 6 b 204 11 183 6 197 8 b 78 -122 186 -42 122 -103 l 179 -204 b 353 101 288 -128 353 -21 z "},"„":{"ha":733,"x_min":0,"x_max":0,"o":"m 353 101 b 192 281 353 215 276 281 b 47 135 114 281 47 215 b 168 6 47 57 101 6 b 204 11 183 6 197 8 b 78 -122 186 -42 122 -103 l 179 -204 b 353 101 288 -128 353 -21 z m 696 101 b 535 281 696 215 619 281 b 390 135 457 281 390 215 b 511 6 390 57 444 6 b 547 11 526 6 540 8 b 421 -122 529 -42 465 -103 l 522 -204 b 696 101 631 -128 696 -21 z "},"‰":{"ha":1611,"x_min":0,"x_max":0,"o":"m 525 706 b 275 940 525 836 428 940 b 28 706 124 940 28 836 b 275 474 28 576 124 474 b 525 706 428 474 525 576 z m 910 926 l 774 926 l 182 0 l 317 0 z m 1061 215 b 813 450 1061 346 964 450 b 565 215 661 450 565 346 b 813 -17 565 86 661 -17 b 1061 215 964 -17 1061 86 z m 356 706 b 275 604 356 633 319 604 b 197 706 232 604 197 633 b 275 810 197 781 232 810 b 356 706 319 810 356 781 z m 893 215 b 813 114 893 143 857 114 b 733 215 768 114 733 143 b 813 319 733 290 768 319 b 893 215 857 319 893 290 z m 1583 215 b 1335 450 1583 346 1486 450 b 1088 215 1183 450 1088 346 b 1335 -17 1088 86 1183 -17 b 1583 215 1486 -17 1583 86 z m 1415 215 b 1335 114 1415 143 1379 114 b 1256 215 1290 114 1256 143 b 1335 319 1256 290 1290 319 b 1415 215 1379 319 1415 290 z "},"Â":{"ha":986,"x_min":0,"x_max":0,"o":"m 728 1011 l 601 1211 l 385 1211 l 263 1011 l 408 1011 l 493 1113 l 582 1011 z m 1011 0 l 669 926 l 317 926 l -25 0 l 293 0 l 326 108 l 660 108 l 693 0 z m 585 353 l 401 353 l 493 651 z "},"Ê":{"ha":828,"x_min":0,"x_max":0,"o":"m 660 1011 l 533 1211 l 317 1211 l 194 1011 l 340 1011 l 425 1113 l 514 1011 z m 778 0 l 778 244 l 356 244 l 356 346 l 768 346 l 768 590 l 356 590 l 356 682 l 778 682 l 778 926 l 75 926 l 75 0 z "},"Á":{"ha":986,"x_min":0,"x_max":0,"o":"m 742 1211 l 526 1211 l 360 1011 l 526 1011 z m 1011 0 l 669 926 l 317 926 l -25 0 l 293 0 l 326 108 l 660 108 l 693 0 z m 585 353 l 401 353 l 493 651 z "},"Ë":{"ha":828,"x_min":0,"x_max":0,"o":"m 706 1104 b 581 1228 706 1174 650 1228 b 457 1104 513 1228 457 1174 b 581 981 457 1035 513 981 b 706 1104 650 981 706 1035 z m 404 1104 b 281 1228 404 1174 350 1228 b 157 1104 211 1228 157 1174 b 281 981 157 1035 211 981 b 404 1104 350 981 404 1035 z m 778 0 l 778 244 l 356 244 l 356 346 l 768 346 l 768 590 l 356 590 l 356 682 l 778 682 l 778 926 l 75 926 l 75 0 z "},"È":{"ha":828,"x_min":0,"x_max":0,"o":"m 564 1011 l 397 1211 l 182 1211 l 397 1011 z m 778 0 l 778 244 l 356 244 l 356 346 l 768 346 l 768 590 l 356 590 l 356 682 l 778 682 l 778 926 l 75 926 l 75 0 z "},"Í":{"ha":431,"x_min":0,"x_max":0,"o":"m 467 1211 l 251 1211 l 85 1011 l 251 1011 z m 356 0 l 356 926 l 75 926 l 75 0 z "},"Î":{"ha":431,"x_min":0,"x_max":0,"o":"m 446 1011 l 319 1211 l 103 1211 l -19 1011 l 126 1011 l 211 1113 l 300 1011 z m 356 0 l 356 926 l 75 926 l 75 0 z "},"Ï":{"ha":431,"x_min":0,"x_max":0,"o":"m 490 1103 b 365 1226 490 1172 435 1226 b 242 1103 297 1226 242 1172 b 365 979 242 1033 297 979 b 490 1103 435 979 490 1033 z m 189 1103 b 65 1226 189 1172 135 1226 b -58 1103 -4 1226 -58 1172 b 65 979 -58 1033 -4 979 b 189 1103 135 979 189 1033 z m 356 0 l 356 926 l 75 926 l 75 0 z "},"Ì":{"ha":431,"x_min":0,"x_max":0,"o":"m 349 1011 l 182 1211 l -33 1211 l 182 1011 z m 356 0 l 356 926 l 75 926 l 75 0 z "},"Ó":{"ha":1064,"x_min":0,"x_max":0,"o":"m 781 1211 l 565 1211 l 399 1011 l 565 1011 z m 532 -17 b 1039 463 818 -17 1039 178 b 532 942 1039 747 818 942 b 25 463 246 942 25 747 b 532 -17 25 178 246 -17 z m 532 231 b 310 463 397 231 310 333 b 532 694 310 592 397 694 b 754 463 667 694 754 592 b 532 231 754 333 667 231 z "},"Ô":{"ha":1064,"x_min":0,"x_max":0,"o":"m 769 1011 l 643 1211 l 426 1211 l 304 1011 l 450 1011 l 535 1113 l 624 1011 z m 532 -17 b 1039 463 818 -17 1039 178 b 532 942 1039 747 818 942 b 25 463 246 942 25 747 b 532 -17 25 178 246 -17 z m 532 231 b 310 463 397 231 310 333 b 532 694 310 592 397 694 b 754 463 667 694 754 592 b 532 231 754 333 667 231 z "},"":{"ha":926,"x_min":0,"x_max":0,"o":"m 293 214 b 213 132 293 168 257 132 b 132 214 168 132 132 168 b 213 294 132 257 168 294 l 293 294 z m 293 632 l 214 632 b 132 714 168 632 132 669 b 214 794 132 758 168 794 b 293 714 257 794 293 758 z m 368 368 l 368 558 l 558 558 l 558 368 z m 794 214 b 714 132 794 168 758 132 b 633 214 669 132 633 168 l 633 294 l 714 294 b 794 214 758 294 794 257 z m 794 714 b 714 632 794 669 757 632 l 633 632 l 633 714 b 714 794 633 758 669 794 b 794 714 757 794 794 758 z m 868 214 b 714 368 868 299 799 368 l 633 368 l 633 558 l 714 558 b 868 714 799 558 868 629 b 714 868 868 799 799 868 b 558 714 629 868 558 799 l 558 632 l 368 632 l 368 714 b 214 868 368 799 299 868 b 58 714 129 868 58 799 b 214 558 58 629 129 558 l 293 558 l 293 368 l 213 368 b 58 214 128 368 58 299 b 213 58 58 129 128 58 b 368 214 297 58 368 129 l 368 294 l 558 294 l 558 214 b 714 58 558 129 629 58 b 868 214 799 58 868 129 z "},"Ò":{"ha":1064,"x_min":0,"x_max":0,"o":"m 671 1011 l 504 1211 l 289 1211 l 504 1011 z m 532 -17 b 1039 463 818 -17 1039 178 b 532 942 1039 747 818 942 b 25 463 246 942 25 747 b 532 -17 25 178 246 -17 z m 532 231 b 310 463 397 231 310 333 b 532 694 310 592 397 694 b 754 463 667 694 754 592 b 532 231 754 333 667 231 z "},"Ú":{"ha":1065,"x_min":0,"x_max":0,"o":"m 783 1211 l 568 1211 l 401 1011 l 568 1011 z m 533 -17 b 990 382 846 -17 990 151 l 990 926 l 706 926 l 706 390 b 533 231 706 301 647 231 b 360 390 418 231 360 301 l 360 926 l 75 926 l 75 381 b 533 -17 75 151 221 -17 z "},"Û":{"ha":1065,"x_min":0,"x_max":0,"o":"m 776 1011 l 650 1211 l 433 1211 l 311 1011 l 457 1011 l 542 1113 l 631 1011 z m 533 -17 b 990 382 846 -17 990 151 l 990 926 l 706 926 l 706 390 b 533 231 706 301 647 231 b 360 390 418 231 360 301 l 360 926 l 75 926 l 75 381 b 533 -17 75 151 221 -17 z "},"Ù":{"ha":1065,"x_min":0,"x_max":0,"o":"m 672 1011 l 506 1211 l 290 1211 l 506 1011 z m 533 -17 b 990 382 846 -17 990 151 l 990 926 l 706 926 l 706 390 b 533 231 706 301 647 231 b 360 390 418 231 360 301 l 360 926 l 75 926 l 75 381 b 533 -17 75 151 221 -17 z "},"ı":{"ha":389,"x_min":0,"x_max":0,"o":"m 319 0 l 319 671 l 69 671 l 69 0 z "},"ˆ":{"ha":465,"x_min":0,"x_max":0,"o":"m 465 772 l 339 972 l 122 972 l 0 772 l 146 772 l 231 874 l 319 772 z "},"˜":{"ha":474,"x_min":0,"x_max":0,"o":"m 310 769 b 474 956 417 769 474 828 l 350 956 b 317 904 350 921 335 904 b 164 964 279 904 250 964 b 0 778 57 964 0 906 l 124 778 b 157 829 124 813 139 829 b 310 769 194 829 224 769 z "},"¯":{"ha":504,"x_min":0,"x_max":0,"o":"m 504 821 l 504 956 l 0 956 l 0 821 z "},"˘":{"ha":488,"x_min":0,"x_max":0,"o":"m 488 885 l 383 971 b 244 897 350 924 303 897 b 106 971 183 897 136 928 l 0 885 b 244 763 57 810 146 763 b 488 885 344 763 432 810 z "},"˙":{"ha":329,"x_min":0,"x_max":0,"o":"m 165 736 b 288 860 232 736 288 792 b 165 983 288 928 232 983 b 42 860 97 983 42 928 b 165 736 42 792 97 736 z "},"˚":{"ha":308,"x_min":0,"x_max":0,"o":"m 156 751 b 308 907 240 751 308 822 b 156 1063 308 992 240 1063 b 0 907 71 1063 0 992 b 156 751 0 822 71 751 z m 156 858 b 107 907 129 858 107 881 b 156 956 107 933 129 956 b 203 907 182 956 203 933 b 156 858 203 881 182 858 z "},"¸":{"ha":329,"x_min":0,"x_max":0,"o":"m 165 -278 b 329 -154 254 -278 329 -233 b 235 -53 329 -94 285 -53 b 188 -65 217 -53 201 -57 l 222 15 l 111 15 l 69 -96 l 151 -143 b 188 -126 160 -133 172 -126 b 217 -150 206 -126 217 -135 b 158 -183 217 -174 188 -183 b 43 -142 119 -183 79 -167 l 0 -231 b 165 -278 31 -256 92 -278 z "},"˝":{"ha":515,"x_min":0,"x_max":0,"o":"m 299 972 l 111 972 l 0 772 l 139 772 z m 515 972 l 328 972 l 217 772 l 356 772 z "},"˛":{"ha":293,"x_min":0,"x_max":0,"o":"m 201 -125 b 153 -164 193 -146 178 -164 b 113 -117 136 -164 113 -154 b 203 0 113 -76 135 -35 l 124 51 b 0 -128 43 6 0 -53 b 153 -258 0 -221 74 -258 b 293 -185 217 -258 263 -231 z "},"ˇ":{"ha":465,"x_min":0,"x_max":0,"o":"m 343 772 l 465 972 l 319 972 l 235 871 l 146 972 l 0 972 l 126 772 z "},"f":{"ha":515,"x_min":0,"x_max":0,"o":"m 371 0 l 371 454 l 507 454 l 507 671 l 371 671 l 371 701 b 431 756 371 732 397 756 b 486 738 453 756 471 749 l 532 907 b 376 940 496 926 440 940 b 121 701 228 940 121 840 l 121 671 l 10 671 l 10 454 l 121 454 l 121 0 z "},"l":{"ha":456,"x_min":0,"x_max":0,"o":"m 300 -17 b 469 28 385 -17 443 4 l 425 217 b 375 204 419 211 397 204 b 319 267 342 204 319 232 l 319 926 l 69 926 l 69 194 b 300 -17 69 54 151 -17 z "},"a":{"ha":828,"x_min":0,"x_max":0,"o":"m 758 0 l 758 671 l 507 671 l 507 600 b 319 688 454 664 388 688 b 24 336 154 688 24 558 b 319 -17 24 106 157 -17 b 508 71 388 -17 451 7 l 508 0 z m 404 204 b 279 336 336 204 279 253 b 404 465 279 419 336 465 b 508 421 438 465 485 450 l 508 250 b 404 204 485 221 438 204 z "},"y":{"ha":842,"x_min":0,"x_max":0,"o":"m 367 -272 b 772 72 628 -272 772 -131 l 772 671 l 522 671 l 522 301 b 417 249 501 278 472 249 b 319 343 356 249 319 275 l 319 671 l 69 671 l 69 236 b 292 28 69 121 136 28 b 522 119 410 28 483 76 l 522 72 b 367 -68 522 -19 465 -68 b 167 6 303 -68 214 -49 l 61 -172 b 367 -272 149 -242 251 -272 z "},"G":{"ha":1008,"x_min":0,"x_max":0,"o":"m 507 -17 b 1013 551 814 -17 1013 182 l 507 551 l 507 307 l 704 307 b 535 231 669 264 608 231 b 310 463 400 231 310 333 b 535 694 310 592 400 694 b 706 579 618 694 679 636 l 942 700 b 535 942 883 819 756 942 b 25 463 254 942 25 760 b 507 -17 25 167 254 -17 z "},"ł":{"ha":489,"x_min":0,"x_max":0,"o":"m 10 250 l 103 304 l 103 194 b 333 -17 103 54 185 -17 b 503 28 418 -17 476 4 l 458 217 b 408 204 453 211 431 204 b 353 267 375 204 353 232 l 353 449 l 449 504 l 449 678 l 353 622 l 353 926 l 103 926 l 103 478 l 10 425 z "},"á":{"ha":828,"x_min":0,"x_max":0,"o":"m 674 972 l 458 972 l 292 772 l 458 772 z m 758 0 l 758 671 l 507 671 l 507 600 b 319 688 454 664 388 688 b 24 336 154 688 24 558 b 319 -17 24 106 157 -17 b 508 71 388 -17 451 7 l 508 0 z m 404 204 b 279 336 336 204 279 253 b 404 465 279 419 336 465 b 508 421 438 465 485 450 l 508 250 b 404 204 485 221 438 204 z "},"à":{"ha":828,"x_min":0,"x_max":0,"o":"m 563 772 l 396 972 l 181 972 l 396 772 z m 758 0 l 758 671 l 507 671 l 507 600 b 319 688 454 664 388 688 b 24 336 154 688 24 558 b 319 -17 24 106 157 -17 b 508 71 388 -17 451 7 l 508 0 z m 404 204 b 279 336 336 204 279 253 b 404 465 279 419 336 465 b 508 421 438 465 485 450 l 508 250 b 404 204 485 221 438 204 z "},"â":{"ha":828,"x_min":0,"x_max":0,"o":"m 660 772 l 533 972 l 317 972 l 194 772 l 340 772 l 425 874 l 514 772 z m 758 0 l 758 671 l 507 671 l 507 600 b 319 688 454 664 388 688 b 24 336 154 688 24 558 b 319 -17 24 106 157 -17 b 508 71 388 -17 451 7 l 508 0 z m 404 204 b 279 336 336 204 279 253 b 404 465 279 419 336 465 b 508 421 438 465 485 450 l 508 250 b 404 204 485 221 438 204 z "},"ä":{"ha":828,"x_min":0,"x_max":0,"o":"m 704 858 b 579 982 704 928 649 982 b 456 858 511 982 456 928 b 579 735 456 789 511 735 b 704 858 649 735 704 789 z m 403 858 b 279 982 403 928 349 982 b 156 858 210 982 156 928 b 279 735 156 789 210 735 b 403 858 349 735 403 789 z m 758 0 l 758 671 l 507 671 l 507 600 b 319 688 454 664 388 688 b 24 336 154 688 24 558 b 319 -17 24 106 157 -17 b 508 71 388 -17 451 7 l 508 0 z m 404 204 b 279 336 336 204 279 253 b 404 465 279 419 336 465 b 508 421 438 465 485 450 l 508 250 b 404 204 485 221 438 204 z "},"ã":{"ha":828,"x_min":0,"x_max":0,"o":"m 504 769 b 668 956 611 769 668 828 l 544 956 b 511 904 544 921 529 904 b 358 964 474 904 444 964 b 194 778 251 964 194 906 l 318 778 b 351 829 318 813 333 829 b 504 769 389 829 418 769 z m 758 0 l 758 671 l 507 671 l 507 600 b 319 688 454 664 388 688 b 24 336 154 688 24 558 b 319 -17 24 106 157 -17 b 508 71 388 -17 451 7 l 508 0 z m 404 204 b 279 336 336 204 279 253 b 404 465 279 419 336 465 b 508 421 438 465 485 450 l 508 250 b 404 204 485 221 438 204 z "},"å":{"ha":828,"x_min":0,"x_max":0,"o":"m 431 751 b 583 907 515 751 583 822 b 431 1063 583 992 515 1063 b 275 907 346 1063 275 992 b 431 751 275 822 346 751 z m 431 858 b 382 907 404 858 382 881 b 431 956 382 933 404 956 b 478 907 457 956 478 933 b 431 858 478 881 457 858 z m 758 0 l 758 671 l 507 671 l 507 600 b 319 688 454 664 388 688 b 24 336 154 688 24 558 b 319 -17 24 106 157 -17 b 508 71 388 -17 451 7 l 508 0 z m 404 204 b 279 336 336 204 279 253 b 404 465 279 419 336 465 b 508 421 438 465 485 450 l 508 250 b 404 204 485 221 438 204 z "},"ý":{"ha":842,"x_min":0,"x_max":0,"o":"m 668 972 l 453 972 l 286 772 l 453 772 z m 367 -272 b 772 72 628 -272 772 -131 l 772 671 l 522 671 l 522 301 b 417 249 501 278 472 249 b 319 343 356 249 319 275 l 319 671 l 69 671 l 69 236 b 292 28 69 121 136 28 b 522 119 410 28 483 76 l 522 72 b 367 -68 522 -19 465 -68 b 167 6 303 -68 214 -49 l 61 -172 b 367 -272 149 -242 251 -272 z "},"ÿ":{"ha":842,"x_min":0,"x_max":0,"o":"m 693 858 b 568 982 693 928 638 982 b 444 858 500 982 444 928 b 568 735 444 789 500 735 b 693 858 638 735 693 789 z m 392 858 b 268 982 392 928 338 982 b 144 858 199 982 144 928 b 268 735 144 789 199 735 b 392 858 338 735 392 789 z m 367 -272 b 772 72 628 -272 772 -131 l 772 671 l 522 671 l 522 301 b 417 249 501 278 472 249 b 319 343 356 249 319 275 l 319 671 l 69 671 l 69 236 b 292 28 69 121 136 28 b 522 119 410 28 483 76 l 522 72 b 367 -68 522 -19 465 -68 b 167 6 303 -68 214 -49 l 61 -172 b 367 -272 149 -242 251 -272 z "},"æ":{"ha":1233,"x_min":0,"x_max":0,"o":"m 758 0 l 758 65 b 954 -17 804 13 871 -17 b 1158 67 1031 -17 1119 26 l 1051 219 b 910 172 1018 190 961 172 b 758 258 821 172 776 221 l 1217 258 l 1217 310 b 947 688 1217 546 1097 688 b 758 608 864 688 801 658 l 758 671 l 507 671 l 507 600 b 319 688 454 664 388 688 b 24 336 154 688 24 558 b 319 -17 24 106 157 -17 b 508 71 388 -17 451 7 l 508 0 z m 404 204 b 279 336 336 204 279 253 b 404 465 279 419 336 465 b 508 421 438 465 485 450 l 508 250 b 404 204 485 221 438 204 z m 979 417 l 758 417 b 868 499 767 447 792 499 b 979 417 949 499 972 446 z "},"ﬂ":{"ha":971,"x_min":0,"x_max":0,"o":"m 371 0 l 371 454 l 507 454 l 507 671 l 371 671 l 371 701 b 431 756 371 732 397 756 b 486 738 453 756 471 749 l 532 907 b 376 940 496 926 440 940 b 121 701 228 940 121 840 l 121 671 l 10 671 l 10 454 l 121 454 l 121 0 z m 815 -17 b 985 28 900 -17 958 4 l 940 217 b 890 204 935 211 913 204 b 835 267 857 204 835 232 l 835 926 l 585 926 l 585 194 b 815 -17 585 54 667 -17 z "},"\u0000":{"ha":0,"x_min":0,"x_max":0,"o":""},"\r":{"ha":0,"x_min":0,"x_max":0,"o":""}}}
